<svg width="624" height="505" viewBox="0 0 624 505" fill="none" xmlns="http://www.w3.org/2000/svg">
<style>
  /* Theme-aware colors using CSS custom property from main stylesheet */
  path {
    stroke: var(--svg-stroke, #1a1a1a);
    transition: stroke var(--transition-speed, 0.2s) ease;
  }

  /* Fallback for system dark mode preference when CSS variables aren't available */
  @media (prefers-color-scheme: dark) {
    path {
      stroke: var(--svg-stroke, #f8f9fa);
    }
  }
</style>
<!-- Main hard hat outline -->
<path d="M547.267 338.193C537.276 328.105 524.084 321.129 510.12 318.557L509.996 318.534C505.181 317.645 499.187 316.543 497.34 311.872C496.54 309.85 496.754 307.619 496.963 305.462C496.994 305.156 497.022 304.849 497.049 304.547C498.124 292.193 493.6 279.556 484.936 270.686C485.343 280.96 484.982 291.223 483.5 301.427L483.26 301.392C488.059 268.347 481.091 234.626 474.351 202.016C473.921 199.936 473.494 197.86 473.067 195.785C456.729 164.706 438.536 141.543 415.807 122.896C393.8 104.839 367.23 90.8288 332.183 78.801C317.618 73.8037 284.914 67.9916 260.975 71.3981C236 74.9522 225.571 80.9311 209.783 89.983L208.239 90.8676C205.127 92.6485 200.025 95.4304 195.086 98.123C190.151 100.812 185.049 103.594 181.937 105.375C173.328 110.302 159.86 119.54 152.217 126.466C141.101 136.542 127.731 158.766 122.194 170.615C114.5 187.082 108.913 208.829 106.034 233.513C103.664 253.84 103.598 272.211 104.265 281.767L104.273 281.857L104.187 281.888C97.5565 284.332 92.6213 291.483 91.6203 300.108C91.1741 303.949 92.1867 311.887 92.1052 311.984L91.8996 312.225C91.4224 312.791 90.9413 313.346 90.4757 313.889C86.5958 318.398 83.2474 322.289 83.2474 326.945C83.2474 329.079 83.1232 331.011 83.0146 332.719C82.6615 338.22 82.4054 342.193 86.3125 347.695C89.2186 351.788 97.6729 351.618 103.268 351.501C103.826 351.49 104.358 351.478 104.855 351.474C106.185 351.459 107.509 351.439 108.828 351.42C121.383 351.237 133.24 351.067 145.633 353.212C156.59 355.11 167.046 359.327 177.161 363.409L290.202 409.01C305.451 415.163 321.222 421.522 337.697 424.525C348.789 426.547 360.759 427.234 376.5 426.749C433.364 424.995 488.525 409.824 536.015 382.874C544.888 377.838 556.722 369.756 556.99 357.783C557.133 351.439 553.862 344.851 547.274 338.193H547.267Z" stroke-width="3" stroke-linecap="round" stroke-linejoin="round"/>

<!-- Internal detail lines -->
<path d="M92.4507 312.881C88.0625 318.053 83.8024 322.379 83.8024 327.64C83.8024 336.49 81.7111 341.169 86.8908 348.456C90.1228 353.007 99.9506 352.355 105.534 352.285C119.428 352.115 132.596 351.653 146.289 354.023C157.183 355.909 167.535 360.076 177.79 364.212C215.471 379.414 253.149 394.615 290.831 409.813C306.312 416.06 321.925 422.341 338.349 425.336C351.125 427.664 364.193 427.959 377.175 427.56C432.86 425.845 488.292 411.167 536.744 383.67C546.72 378.009 557.521 369.943 557.781 358.478C557.952 350.954 553.323 344.149 548.031 338.803C538.005 328.676 524.833 321.715 510.819 319.135C505.903 318.231 499.971 317.172 498.131 312.524C497.231 310.246 497.635 307.693 497.848 305.253C498.931 292.81 494.298 279.983 485.514 271.102" stroke-width="2.5" stroke-linecap="round" stroke-linejoin="round"/>

<path d="M292.057 410.232C268.587 398.926 246.107 383.961 224.112 370.005C214.183 363.704 204.378 357.123 193.767 352.056C165.991 338.795 131.983 336.502 101.293 338.841" stroke-width="1.5" stroke-linecap="round" stroke-linejoin="round"/>

<path d="M471.744 316.885C480.811 314.25 489.584 308.714 493.46 300.104C495.384 295.832 495.99 290.978 495.179 286.365" stroke-width="1.5" stroke-linecap="round" stroke-linejoin="round"/>

<path d="M484.059 302.098C486.88 282.675 485.626 262.942 482.79 243.601C481.382 233.994 479.57 224.45 477.657 214.932C474.747 200.452 470.642 189.67 462.82 177.118C456.061 166.274 448.534 155.895 440.103 146.288C423.912 127.847 404.443 112.719 382.937 100.955C366.975 92.2257 350.093 85.2728 332.901 79.3715C318.39 74.3896 285.419 68.5775 261.635 71.9647C235.822 75.639 225.315 82.0253 208.856 91.4497C202.633 95.0114 188.778 102.391 182.558 105.953C173.797 110.97 160.299 120.281 152.818 127.06C142.191 136.69 128.837 158.254 122.765 171.248C104.87 209.551 103.516 263.699 104.824 282.462C97.4946 285.163 93.0793 293.019 92.1752 300.779C91.2712 308.539 93.2306 316.314 95.1744 323.88C96.35 328.459 98.4258 333.506 100.56 338.535" stroke-width="2.5" stroke-linecap="round" stroke-linejoin="round"/>

<path d="M208.984 91.4111C251.772 88.7145 294.781 103.769 327.582 131.118C349.88 149.707 369.229 172.253 384.302 197.061C378.405 187.354 373.815 176.851 367.882 167.128C362.113 157.672 355.614 148.799 348.281 140.496C334.069 124.398 317.083 110.551 298.281 100.16C283.459 91.9698 267.28 85.8666 250.441 83.5969C243.255 82.6269 235.911 82.4989 228.752 83.7211C225.264 84.3186 221.831 85.2303 218.529 86.4991C215.952 87.4885 211.491 91.2597 208.984 91.4149V91.4111Z" stroke-width="1.5" stroke-miterlimit="10"/>

<path d="M361.484 90.437C394.549 115.567 420.847 146.836 433.139 186.504C423.036 165.362 410.88 145.086 395.636 127.292C380.391 109.499 359.354 91.4225 338.251 81.2416C338.251 81.2416 350.714 85.6181 361.484 90.437Z" stroke-width="1.5" stroke-miterlimit="10"/>

<path d="M110.504 286.579C132.833 283.77 155.542 286.559 176.723 294.16C197.48 301.606 215.945 313.447 236.113 322.185C256.544 331.039 279.199 335.089 300.954 339.315C333.231 345.581 366.427 352.072 398.794 343.206C403.325 341.965 405.754 341.154 409.188 339.784C409.215 339.772 409.235 339.807 409.211 339.827C402.852 344.816 393.048 349.612 379.332 351.618C321.944 360.002 270.415 351.467 215.735 325.828C212.294 324.214 208.945 322.41 205.609 320.598C185.805 309.851 166.817 295.386 144.352 293.64C129.457 292.484 114.485 296.911 99.6402 295.235L94.1384 293.652C94.1384 293.652 96.4198 288.329 100.028 285.213C100.028 285.213 106.05 286.808 110.5 286.587L110.504 286.579Z" stroke-width="1.5" stroke-miterlimit="10"/>

<path d="M339.776 373.753C305.8 384.725 268.948 377.796 236.054 369.854C270.403 372.453 305.094 370.486 339.776 373.753Z" stroke-width="1.5" stroke-miterlimit="10"/>

<!-- Brim detail -->
<path d="M92.099 312.612C92.1442 312.778 92.2011 313.008 92.2631 313.288C92.406 313.933 92.5846 314.825 92.7699 315.757C92.955 316.689 93.1467 317.662 93.3168 318.464C93.4852 319.26 93.636 319.91 93.7396 320.182L93.7875 320.307H93.7943C94.4909 322.148 94.9802 323.875 95.5023 325.706C96.0358 327.577 96.6039 329.554 97.4642 331.859C98.2223 333.89 98.7524 335.368 99.181 336.43C99.6073 337.486 99.9452 338.165 100.329 338.576C100.526 338.786 100.737 338.929 100.978 339.018C101.216 339.106 101.474 339.138 101.76 339.139C102.045 339.141 102.368 339.112 102.737 339.075C103.109 339.038 103.532 338.992 104.028 338.954C134.702 336.615 166.533 338.781 194.266 352.018C204.864 357.079 214.655 363.651 224.59 369.956C245.279 383.08 267.327 397.369 289.411 408.434C252.146 393.401 214.883 378.367 177.618 363.338C167.366 359.203 156.996 355.027 146.078 353.137C132.364 350.763 119.174 351.226 105.287 351.397C102.488 351.432 98.654 351.612 95.1107 351.216C91.5556 350.82 88.37 349.85 86.8051 347.649C84.2401 344.036 83.4786 341.081 83.3549 337.93C83.2928 336.349 83.3913 334.717 83.5062 332.919C83.621 331.123 83.7523 329.165 83.7523 326.946C83.7523 324.382 84.7858 322.031 86.3783 319.671C87.9239 317.379 89.9777 315.099 92.099 312.612Z" stroke-width="1" stroke-miterlimit="10"/>
</svg>
